<?xml version="1.0" encoding="UTF-8"?>
<svg height="16px" viewBox="0 0 16 16" width="16px" xmlns="http://www.w3.org/2000/svg">
    <g fill="#2e3436">
        <path d="m 7.996094 12 c -0.703125 0 -1.355469 0.371094 -1.714844 0.972656 h -3.285156 c -0.554688 0 -1 0.449219 -1 1 c 0 0.550782 0.445312 1 1 1 h 3.246094 c 0.351562 0.640625 1.023437 1.035156 1.753906 1.039063 v -1 c -0.6901 -0.0117 -1.0041 -0.4897 -1 -1 c -0.0041 -0.6657 0.4959 -1.0007 1 -1 v -1 z m 0 0"/>
        <path d="m 6.992188 10 h 1 v 3 h -1 z m 0 0"/>
        <path d="m 4 0 c -1.6445 0 -3 1.3555 -3 3 v 5.0156 c 0 1.6445 1.3555 3 3 3 h 4 v -2 h -4 c -0.5625 0 -1 -0.4373 -1 -1 v -4 h 9 c 0.5625 0 1 0.4375 1 1 v 2 h 2 v -2 c 0 -1.6445 -1.3555 -3 -3 -3 h -2.5859 l -1.707 -1.707 c -0.1875 -0.1875 -0.4414 -0.293 -0.707 -0.293 z m 0 2 h 2.5859 l 1 1 h -4.5859 c 0 -0.5625 0.4375 -1 1 -1 z m 0 0"/>
        <path d="m 11.714844 8.011719 c -0.960938 0.066406 -1.863282 0.480469 -2.542969 1.160156 c -1.5625 1.5625 -1.5625 4.09375 0 5.65625 s 4.09375 1.5625 5.65625 0 s 1.5625 -4.09375 0 -5.65625 c -0.820313 -0.820313 -1.957031 -1.246094 -3.113281 -1.160156 z m -1.128906 1.570312 c 0.253906 0 0.511718 0.101563 0.707031 0.296875 l 0.707031 0.707032 l 0.707031 -0.707032 c 0.390625 -0.390625 1.023438 -0.390625 1.414063 0 s 0.390625 1.023438 0 1.414063 l -0.707032 0.707031 l 0.707032 0.707031 c 0.390625 0.390625 0.390625 1.023438 0 1.414063 s -1.023438 0.390625 -1.414063 0 l -0.707031 -0.707032 l -0.707031 0.707032 c -0.390625 0.390625 -1.023438 0.390625 -1.414063 0 s -0.390625 -1.023438 0 -1.414063 l 0.707032 -0.707031 l -0.707032 -0.707031 c -0.390625 -0.390625 -0.390625 -1.023438 0 -1.414063 c 0.195313 -0.195312 0.453125 -0.296875 0.707032 -0.296875 z m 0 0" class="error" fill="#e01b24"/>
    </g>
</svg>
